<svg xmlns="http://www.w3.org/2000/svg" viewBox="0 0 24 24" width="48" height="48">
    <defs>
        <linearGradient id="logoGradient" x1="0%" y1="0%" x2="100%" y2="100%">
            <stop offset="0%" style="stop-color:#10a37f"/>
            <stop offset="100%" style="stop-color:#0d8a6a"/>
        </linearGradient>
    </defs>

    <!-- OpenAI Logo -->
    <path fill="url(#logoGradient)"
          d="M22.282 9.821a5.985 5.985 0 0 0-.516-4.91 6.046 6.046 0 0 0-6.51-2.9A6.065 6.065 0 0 0 4.981 4.18a5.985 5.985 0 0 0-3.998 2.9 6.046 6.046 0 0 0 .743 7.097 5.98 5.98 0 0 0 .51 4.911 6.051 6.051 0 0 0 6.515 2.9A5.985 5.985 0 0 0 13.26 24a6.056 6.056 0 0 0 5.772-4.206 5.99 5.99 0 0 0 3.997-2.9 6.056 6.056 0 0 0-.747-7.073zM13.26 22.43a4.476 4.476 0 0 1-2.876-1.04l.141-.081 4.779-2.758a.795.795 0 0 0 .392-.681v-6.737l2.02 1.168a.071.071 0 0 1 .038.052v5.583a4.504 4.504 0 0 1-4.494 4.494zM3.6 18.304a4.47 4.47 0 0 1-.535-3.014l.142.085 4.783 2.759a.771.771 0 0 0 .78 0l5.843-3.369v2.332a.08.08 0 0 1-.033.062L9.74 19.95a4.5 4.5 0 0 1-6.14-1.646zM2.34 7.896a4.485 4.485 0 0 1 2.366-1.973V11.6a.766.766 0 0 0 .388.676l5.815 3.355-2.02 1.168a.076.076 0 0 1-.071 0l-4.83-2.786A4.504 4.504 0 0 1 2.34 7.896zm16.597 3.855l-5.833-3.387L15.119 7.2a.076.076 0 0 1 .071 0l4.83 2.791a4.494 4.494 0 0 1-.676 8.105v-5.678a.79.79 0 0 0-.407-.667zm2.01-3.023l-.141-.085-4.774-2.782a.776.776 0 0 0-.785 0L9.409 9.23V6.897a.066.066 0 0 1 .028-.061l4.83-2.787a4.5 4.5 0 0 1 6.68 4.66zm-12.64 4.135l-2.02-1.164a.08.08 0 0 1-.038-.057V6.075a4.5 4.5 0 0 1 7.375-3.453l-.142.08-4.778 2.758a.795.795 0 0 0-.393.681zm1.097-2.365l2.602-1.5 2.607 1.5v2.999l-2.597 1.5-2.607-1.5z"/>

    <!-- 齿轮图标 (右下角，覆盖在logo上) -->
    <g transform="translate(14, 14) scale(0.42)">
        <path fill="#6b7280" fill-rule="evenodd"
              d="M11.078 2.25c-.917 0-1.699.663-1.85 1.567L9.05 4.889c-.02.12-.115.26-.297.348a7.493 7.493 0 00-.986.57c-.166.115-.334.126-.45.083L6.3 5.508a1.875 1.875 0 00-2.282.819l-.922 1.597a1.875 1.875 0 00.432 2.385l.84.692c.095.078.17.229.154.43a7.598 7.598 0 000 1.139c.015.2-.059.352-.153.43l-.841.692a1.875 1.875 0 00-.432 2.385l.922 1.597a1.875 1.875 0 002.282.818l1.019-.382c.115-.043.283-.031.45.082.312.214.641.405.985.57.182.088.277.228.297.35l.178 1.071c.151.904.933 1.567 1.85 1.567h1.844c.916 0 1.699-.663 1.85-1.567l.178-1.072c.02-.12.114-.26.297-.349.344-.165.673-.356.985-.57.167-.114.335-.125.45-.082l1.02.382a1.875 1.875 0 002.28-.819l.923-1.597a1.875 1.875 0 00-.432-2.385l-.84-.692c-.095-.078-.17-.229-.154-.43a7.614 7.614 0 000-1.139c-.016-.2.059-.352.153-.43l.84-.692c.708-.582.891-1.59.433-2.385l-.922-1.597a1.875 1.875 0 00-2.282-.818l-1.02.382c-.114.043-.282.031-.449-.083a7.49 7.49 0 00-.985-.57c-.183-.087-.277-.227-.297-.348l-.179-1.072a1.875 1.875 0 00-1.85-1.567h-1.843zM12 15.75a3.75 3.75 0 100-7.5 3.75 3.75 0 000 7.5z"
              clip-rule="evenodd"/>
    </g>
</svg>
